<?xml version="1.0" encoding="UTF-8"?>
<svg width="50mm" height="50mm" clip-rule="evenodd" fill-rule="evenodd" image-rendering="optimizeQuality" shape-rendering="geometricPrecision" text-rendering="geometricPrecision" version="1.1" viewBox="0 0 50 50" xmlns="http://www.w3.org/2000/svg" xmlns:cc="http://creativecommons.org/ns#" xmlns:dc="http://purl.org/dc/elements/1.1/" xmlns:rdf="http://www.w3.org/1999/02/22-rdf-syntax-ns#">
 <metadata>
  <rdf:RDF>
   <cc:Work rdf:about="">
    <dc:format>image/svg+xml</dc:format>
    <dc:type rdf:resource="http://purl.org/dc/dcmitype/StillImage"/>
    <dc:title/>
   </cc:Work>
  </rdf:RDF>
 </metadata>
 <g transform="translate(517.21 581.58)">
  <g transform="matrix(1 0 0 1.0191 0 10.367)" stroke-width=".99059">
   <path d="m-492.23-571.94c-1.1552 1.7e-4 -2.0917 0.97405-2.0918 2.1754 1.7e-4 0.49597 0.16328 0.97698 0.46228 1.3634-14.841 13.636-6.1941 25.207-6.1941 25.207h15.647s6.8687-9.1922-2.1471-20.846c-2.5961 3.1775-3.4916 8.5165-3.4916 8.5165l-3.1471-0.78469s1.4217-6.9942 4.3231-10.4c-0.5391-0.56029-1.113-1.1245-1.7314-1.6927 0.29902-0.38637 0.46212-0.86738 0.46229-1.3634-1.3e-4 -1.2014-0.93657-2.1752-2.0918-2.1754z" fill="#474545" stroke="#050505" stroke-opacity=".99975" stroke-width=".89153"/>
   <path d="m-492.23-571.94c1.6359 2.2011 0.42137 2.4454 0.13088 3.4011 0 0 1.2531 1.629 1.3974 1.8303-2.9014 3.4057-2.9616 11.185-2.9616 11.185s0.59992-3.5675 2.2366-6.6058c0.66363-1.6623 1.5132-3.3528 2.5576-4.5788-0.53908-0.56028-1.113-1.1245-1.7314-1.6927 0.29904-0.38636 0.46214-0.86737 0.46229-1.3633-1.3e-4 -1.2014-0.93654-2.1753-2.0918-2.1755zm5.6764 7.8995c-0.68261 0.83548-0.26433-0.14969-0.72641 0.84831 6.0199 10.283-0.74467 19.998-0.74467 19.998h3.6182s6.8687-9.1922-2.1471-20.846z" opacity=".4"/>
  </g>
  <path d="m-501.61-543.19c-3.8003 2.0594-4.1456 2.9933-4.1456 7.1295 9.0173 0.15151 18.034 0.0594 27.051 0 0.10437-4.1586 0.3424-5.2041-4.1471-7.1295z" fill="#474545" stroke="#050505" stroke-linejoin="round" stroke-opacity=".99975" stroke-width=".8"/>
  <path d="m-486.75-543.19c4.4895 1.9255 4.2511 2.971 4.1468 7.1296 0 0 1.0025-2e-3 3.9026 0 0.10439-4.1587 0.34228-5.2042-4.1472-7.1296z" opacity=".4"/>
 </g>
</svg>
