<?xml version="1.0" encoding="UTF-8"?>
<svg width="50mm" height="50mm" clip-rule="evenodd" fill-rule="evenodd" image-rendering="optimizeQuality" shape-rendering="geometricPrecision" text-rendering="geometricPrecision" version="1.1" viewBox="0 0 50 50" xmlns="http://www.w3.org/2000/svg" xmlns:cc="http://creativecommons.org/ns#" xmlns:dc="http://purl.org/dc/elements/1.1/" xmlns:rdf="http://www.w3.org/1999/02/22-rdf-syntax-ns#">
 <metadata>
  <rdf:RDF>
   <cc:Work rdf:about="">
    <dc:format>image/svg+xml</dc:format>
    <dc:type rdf:resource="http://purl.org/dc/dcmitype/StillImage"/>
    <dc:title/>
   </cc:Work>
  </rdf:RDF>
 </metadata>
 <g transform="translate(448.52 581.54)">
  <g transform="matrix(.93617 0 0 .99867 -71.422 -44.505)" stroke-width="1.0342">
   <g>
    <path d="m-373.15-518.91v-3.0978h4.3602v-5.061h-4.9069v-3.9841h-4.824v3.9841h-4.9069v5.061h4.3602v3.0978" fill="#474545" stroke="#050505" stroke-opacity=".99975" stroke-width=".82738"/>
    <path d="m-368.26-499.35s8.6559-13.629 7.3706-16.286c-1.2853-2.657-10.009-3.5265-15.212-3.5265-5.2032 0-13.927 0.86896-15.212 3.5265-1.2853 2.6572 7.3706 16.286 7.3706 16.286z" fill="#474545" stroke="#050505" stroke-opacity=".99975" stroke-width=".82738"/>
    <path d="m-376.1-519.17c-0.65679 0-1.3697 0.0139-2.1167 0.0434 5.1704 0.20455 11.972 1.1613 13.095 3.483 1.2853 2.6572-7.3706 16.286-7.3706 16.286h4.2333s8.6559-13.629 7.3706-16.286c-1.2853-2.657-10.009-3.5264-15.212-3.5264z" opacity=".4"/>
   </g>
   <path d="m-391.43-515.24c10.122-1.3995 20.348-1.2444 30.647 0" fill="none" stroke="#050505" stroke-width=".82738"/>
  </g>
  <g transform="matrix(.8741 0 0 1.0764 -132.09 -3.152)" stroke-width="1.0309">
   <path d="m-344.13-501.7c-4.3476 1.9131-4.7427 2.7807-4.7427 6.6233 10.316 0.14075 20.631 0.0552 30.947 0 0.1194-3.8634 0.39172-4.8345-4.7444-6.6233z" fill="#474545" stroke="#050505" stroke-linejoin="round" stroke-opacity=".99975" stroke-width=".82474"/>
   <path d="m-327.13-501.7c5.1362 1.7887 4.8634 2.76 4.744 6.6234 0 0 1.1469-2e-3 4.4647 0 0.11942-3.8634 0.39158-4.8346-4.7446-6.6234z" opacity=".4"/>
  </g>
 </g>
</svg>
