<?xml version="1.0" encoding="UTF-8"?>
<svg width="50mm" height="50mm" clip-rule="evenodd" fill-rule="evenodd" image-rendering="optimizeQuality" shape-rendering="geometricPrecision" text-rendering="geometricPrecision" version="1.1" viewBox="0 0 50 50" xmlns="http://www.w3.org/2000/svg" xmlns:cc="http://creativecommons.org/ns#" xmlns:dc="http://purl.org/dc/elements/1.1/" xmlns:rdf="http://www.w3.org/1999/02/22-rdf-syntax-ns#">
 <metadata>
  <rdf:RDF>
   <cc:Work rdf:about="">
    <dc:format>image/svg+xml</dc:format>
    <dc:type rdf:resource="http://purl.org/dc/dcmitype/StillImage"/>
    <dc:title/>
   </cc:Work>
  </rdf:RDF>
 </metadata>
 <g transform="translate(552.58 581.54)">
  <g>
   <path d="m-518.01-543.19s9.6693-20.661-11.368-28.968l0.15071 2.68s-3.8506 0.0879-4.2507 0.84563c-0.51083 0.58427-1.2488 4.7832-8.4748 8.9252l-0.0368 2.6895 0.8827 0.98729 1.8075-0.95046 0.74313 0.9464-1.4599 0.91424 1.2327 1.3074 1.87-0.62625 0.78166-1.7734 6.818-1.4244c0.51261 5.5356-7.0987 9.6405-7.0987 9.6405l1.0063 4.8064z" fill="#f5e9da" stroke="#282828" stroke-opacity=".99964" stroke-width=".8"/>
   <path d="m-529.33-569.48c1.6378 0.0679 3.8959-1.2063 5.79-1.8079 0.40899 1.5613 0.20395 2.454-1.047 4.205" fill="#f5e9da" stroke="#3c3c3c" stroke-linecap="round" stroke-width=".8"/>
   <path d="m-540.45-559.08s0.28117 0.71966 0.5061 0.6597c0.22493-0.06 0.86223-1.1395 0.58107-1.1795-0.28117-0.04-1.0872 0.51977-1.0872 0.51977z" fill="#282828" stroke="#282828" stroke-width=".26458px"/>
  </g>
  <g fill="none" stroke="#282828" stroke-linecap="round" stroke-width=".6">
   <path d="m-522.39-568.16-1.4661 4.6665"/>
   <path d="m-521.09-567-1.7982 5.8894"/>
   <path d="m-518.54-563.84-1.2634 4.0371"/>
   <path d="m-519.73-565.5-2.032 6.7322"/>
  </g>
  <path d="m-524.13-568.99c11.232 9.607 2.8804 25.908 1.8919 25.792h4.2333s7.4378-17.022-6.1253-25.792z" opacity=".4"/>
  <ellipse cx="-531.2" cy="-564.78" rx=".52229" ry=".56983" fill="#282828" style="paint-order:normal"/>
  <ellipse cx="-530.91" cy="-564.87" rx=".94128" ry=".99138" fill="none" stroke="#282828" stroke-linecap="round" stroke-linejoin="round" stroke-width=".6" style="paint-order:normal"/>
  <path d="m-532.68-564.6s0.9817-1.5375 3.4448-1.6248" fill="none" stroke="#282828" stroke-linecap="round" stroke-width=".8"/>
  <g transform="matrix(.8741 0 0 1.0764 -235.28 -3.152)" stroke-width="1.0309">
   <path d="m-344.13-501.7c-4.3476 1.9131-4.7427 2.7807-4.7427 6.6233 10.316 0.14075 20.631 0.0552 30.947 0 0.1194-3.8634 0.39172-4.8345-4.7444-6.6233z" fill="#f5e9da" stroke="#282828" stroke-linejoin="round" stroke-opacity=".99964" stroke-width=".82474"/>
   <path d="m-327.13-501.7c5.1362 1.7887 4.8634 2.76 4.744 6.6234 0 0 1.1469-2e-3 4.4647 0 0.11942-3.8634 0.39158-4.8346-4.7446-6.6234z" opacity=".4"/>
  </g>
 </g>
</svg>
