<?xml version="1.0" encoding="UTF-8"?>
<svg width="50mm" height="50mm" clip-rule="evenodd" fill-rule="evenodd" image-rendering="optimizeQuality" shape-rendering="geometricPrecision" text-rendering="geometricPrecision" version="1.1" viewBox="0 0 50 50" xmlns="http://www.w3.org/2000/svg" xmlns:cc="http://creativecommons.org/ns#" xmlns:dc="http://purl.org/dc/elements/1.1/" xmlns:rdf="http://www.w3.org/1999/02/22-rdf-syntax-ns#">
 <metadata>
  <rdf:RDF>
   <cc:Work rdf:about="">
    <dc:format>image/svg+xml</dc:format>
    <dc:type rdf:resource="http://purl.org/dc/dcmitype/StillImage"/>
    <dc:title/>
   </cc:Work>
  </rdf:RDF>
 </metadata>
 <g transform="translate(589.09 581.54)">
  <g transform="matrix(.92451 0 0 .91158 -106.45 -89.307)" stroke-width="1.0893">
   <path d="m-501.92-517.15h13.615m-17.457-2.3261h21.3m-20.356 21.56 2.8985-19.234-3.8427-2.3261v-7.7402h4.2963v3.6797h3.8122v-3.3626h5.083v3.3626h3.8122v-3.6797h4.2963v7.7402l-3.8427 2.3261 2.8985 19.234z" fill="#f5e9da" stroke="#282828" stroke-opacity=".99964" stroke-width=".87144"/>
   <path d="m-487.11-527.22v7.7401l-3.8426 2.326 1.8402 19.234h3.7042l-2.8985-19.234 3.8426-2.326v-7.7401z" opacity=".4"/>
  </g>
  <g transform="matrix(.8741 0 0 1.0764 -272.69 -3.152)" stroke-width="1.0309">
   <path d="m-344.13-501.7c-4.3476 1.9131-4.7427 2.7807-4.7427 6.6233 10.316 0.14075 20.631 0.0552 30.947 0 0.1194-3.8634 0.39172-4.8345-4.7444-6.6233z" fill="#f5e9da" stroke="#282828" stroke-linejoin="round" stroke-opacity=".99964" stroke-width=".82474"/>
   <path d="m-327.13-501.7c5.1362 1.7887 4.8634 2.76 4.744 6.6234 0 0 1.1469-2e-3 4.4647 0 0.11942-3.8634 0.39158-4.8346-4.7446-6.6234z" opacity=".4"/>
  </g>
 </g>
</svg>
